<?xml version="1.0" standalone="no"?>
<!DOCTYPE svg PUBLIC "-//W3C//DTD SVG 20010904//EN"
 "http://www.w3.org/TR/2001/REC-SVG-20010904/DTD/svg10.dtd">
<svg version="1.0" xmlns="http://www.w3.org/2000/svg"
 width="512.000000pt" height="512.000000pt" viewBox="0 0 512.000000 512.000000"
 preserveAspectRatio="xMidYMid meet">
<metadata>
Created by potrace 1.11, written by Peter Selinger 2001-2013
</metadata>
<g transform="translate(0.000000,512.000000) scale(0.100000,-0.100000)"
fill="#000000" stroke="none">
<path d="M2560 4949 c-486 -55 -946 -324 -1244 -725 -36 -49 -66 -92 -66 -96
0 -6 54 -44 116 -81 7 -4 38 30 76 81 127 168 273 306 443 415 409 262 914
327 1380 177 261 -84 475 -220 676 -427 108 -112 222 -270 283 -392 88 -174
147 -385 167 -595 11 -114 22 -155 192 -701 99 -319 182 -586 185 -592 3 -10
-56 -13 -277 -13 l-282 0 -24 -25 c-25 -24 -25 -27 -25 -200 l0 -175 -138 0
c-164 0 -212 13 -271 71 -37 37 -71 109 -71 151 0 16 -9 18 -81 18 l-82 0 7
-52 c9 -71 55 -167 107 -222 26 -29 70 -60 117 -84 l76 -37 168 -4 168 -3 0
-239 0 -239 -535 0 -536 0 -24 -25 -25 -24 0 -296 0 -295 -558 0 -559 0 -6
178 c-22 612 -190 1173 -528 1757 -108 187 -146 267 -185 390 -15 50 -29 91
-30 93 -2 3 -145 -36 -151 -41 -7 -8 59 -193 103 -286 24 -51 79 -155 123
-230 178 -307 296 -581 381 -883 85 -299 118 -526 127 -852 6 -233 7 -241 29
-263 l23 -23 671 0 671 0 24 25 25 24 0 296 0 295 535 0 536 0 24 25 25 24 0
496 0 495 295 0 296 0 24 25 c14 13 25 34 25 46 0 11 -90 308 -199 658 -184
587 -200 646 -211 751 -23 235 -72 412 -171 620 -237 495 -690 856 -1220 974
-200 44 -410 56 -599 35z"/>
<path d="M2624 4456 c-88 -41 -144 -127 -144 -222 l-1 -39 -158 -87 -158 -87
-58 30 c-72 36 -130 38 -200 5 -51 -23 -108 -78 -120 -115 -6 -21 -11 -21
-358 -21 l-351 0 -161 160 -161 160 -66 0 c-64 0 -66 1 -78 30 -17 42 -90 104
-138 118 -154 46 -312 -73 -312 -234 0 -121 120 -234 246 -234 76 0 188 75
209 139 5 15 15 21 38 21 27 0 53 -21 192 -160 l161 -160 386 0 386 0 12 -30
c14 -34 77 -95 109 -105 18 -5 21 -14 21 -56 l0 -49 -649 0 -649 0 -12 30
c-17 42 -90 104 -138 118 -154 46 -312 -73 -312 -234 0 -121 120 -234 246
-234 76 0 188 75 209 139 6 21 8 21 656 21 l649 0 0 -49 c0 -45 -2 -50 -30
-61 -34 -14 -95 -77 -105 -109 -6 -21 -8 -21 -392 -21 l-387 0 -161 -160
c-138 -137 -165 -160 -192 -160 -25 0 -33 6 -43 30 -17 42 -90 104 -138 118
-154 46 -312 -73 -312 -234 0 -121 120 -234 246 -234 76 0 188 75 209 139 6
18 14 21 72 21 l67 0 161 160 161 160 351 0 351 0 12 -30 c17 -42 90 -104 138
-118 64 -20 114 -15 178 17 l58 30 155 -87 156 -88 6 -54 c19 -174 184 -276
335 -206 88 41 144 127 144 222 l1 39 158 87 158 87 58 -30 c72 -36 130 -38
201 -5 88 41 144 127 144 222 0 76 -75 188 -139 209 -20 6 -21 13 -21 184 l0
179 30 12 c42 17 104 90 118 138 28 92 -2 190 -77 253 -76 66 -164 76 -256 30
l-58 -29 -156 87 -156 87 -6 54 c-19 174 -184 276 -335 206z m151 -161 c16
-15 25 -36 25 -55 0 -19 -9 -40 -25 -55 -15 -16 -36 -25 -55 -25 -19 0 -40 9
-55 25 -16 15 -25 36 -25 55 0 19 9 40 25 55 15 16 36 25 55 25 19 0 40 -9 55
-25z m-2320 -80 c50 -49 15 -135 -55 -135 -41 0 -80 39 -80 80 0 41 39 80 80
80 19 0 40 -9 55 -25z m2148 -180 l37 -19 0 -175 0 -176 -41 -22 -42 -23 -156
88 -156 88 -3 44 -2 45 157 87 c87 48 160 86 163 85 3 -2 22 -11 43 -22z m437
-63 l155 -87 3 -45 2 -45 -159 -87 -159 -87 -41 22 -41 22 0 175 0 175 38 21
c20 12 39 22 42 23 3 0 75 -39 160 -87z m-985 -77 c50 -49 15 -135 -55 -135
-41 0 -80 39 -80 80 0 41 39 80 80 80 19 0 40 -9 55 -25z m1440 0 c16 -15 25
-36 25 -55 0 -19 -9 -40 -25 -55 -15 -16 -36 -25 -55 -25 -19 0 -40 9 -55 25
-16 15 -25 36 -25 55 0 19 9 40 25 55 15 16 36 25 55 25 19 0 40 -9 55 -25z
m-1175 -323 l155 -88 3 -44 2 -45 -159 -87 -159 -87 -41 22 -41 22 0 175 0
175 38 21 c20 12 39 22 42 23 3 0 75 -39 160 -87z m1003 63 l37 -19 0 -175 0
-176 -41 -22 -42 -23 -156 88 -156 88 -3 44 -2 45 157 87 c87 48 160 86 163
85 3 -2 22 -11 43 -22z m-2868 -140 c50 -49 15 -135 -55 -135 -41 0 -80 39
-80 80 0 41 39 80 80 80 19 0 40 -9 55 -25z m2320 0 c16 -15 25 -36 25 -55 0
-19 -9 -40 -25 -55 -15 -16 -36 -25 -55 -25 -19 0 -40 9 -55 25 -16 15 -25 36
-25 55 0 19 9 40 25 55 15 16 36 25 55 25 19 0 40 -9 55 -25z m-172 -260 l37
-19 0 -175 0 -176 -41 -22 -41 -23 -157 88 -156 87 -3 45 -2 45 157 87 c87 48
160 86 163 85 3 -2 22 -11 43 -22z m437 -63 l155 -88 3 -44 2 -45 -159 -87
-159 -87 -41 22 -41 22 0 175 0 175 38 21 c20 12 39 22 42 23 3 0 75 -39 160
-87z m-985 -77 c50 -49 15 -135 -55 -135 -41 0 -80 39 -80 80 0 41 39 80 80
80 19 0 40 -9 55 -25z m1440 0 c16 -15 25 -36 25 -55 0 -19 -9 -40 -25 -55
-15 -16 -36 -25 -55 -25 -19 0 -40 9 -55 25 -16 15 -25 36 -25 55 0 19 9 40
25 55 15 16 36 25 55 25 19 0 40 -9 55 -25z m-3040 -320 c50 -49 15 -135 -55
-135 -41 0 -80 39 -80 80 0 41 39 80 80 80 19 0 40 -9 55 -25z m2320 -80 c16
-15 25 -36 25 -55 0 -19 -9 -40 -25 -55 -15 -16 -36 -25 -55 -25 -19 0 -40 9
-55 25 -16 15 -25 36 -25 55 0 19 9 40 25 55 15 16 36 25 55 25 19 0 40 -9 55
-25z"/>
</g>
</svg>
