<?xml version="1.0" standalone="no"?>
<!DOCTYPE svg PUBLIC "-//W3C//DTD SVG 20010904//EN"
 "http://www.w3.org/TR/2001/REC-SVG-20010904/DTD/svg10.dtd">
<svg version="1.0" xmlns="http://www.w3.org/2000/svg"
 width="512.000000pt" height="512.000000pt" viewBox="0 0 512.000000 512.000000"
 preserveAspectRatio="xMidYMid meet">
<metadata>
Created by potrace 1.11, written by Peter Selinger 2001-2013
</metadata>
<g transform="translate(0.000000,512.000000) scale(0.100000,-0.100000)"
fill="#000000" stroke="none">
<path d="M2560 5000 c-424 -53 -806 -238 -1105 -538 -127 -127 -288 -342 -270
-360 3 -4 50 -35 103 -69 l97 -63 -145 0 -145 0 -145 146 c-80 80 -157 152
-172 160 -15 8 -45 14 -68 14 -36 0 -46 6 -103 64 -52 53 -73 67 -122 81 -197
58 -387 -92 -372 -295 7 -110 60 -190 159 -239 121 -61 253 -34 350 72 l47 52
159 -158 158 -157 376 0 375 0 27 -40 c14 -22 45 -52 68 -67 l42 -28 -605 -3
-604 -2 -18 22 c-79 100 -140 133 -247 133 -58 0 -86 -5 -122 -23 -231 -114
-219 -443 20 -535 112 -44 258 -3 330 94 l36 49 602 0 601 0 -68 -70 -69 -70
-355 0 c-283 0 -362 -3 -388 -14 -18 -8 -97 -79 -176 -159 l-143 -145 -62 63
c-49 50 -73 66 -116 79 -110 33 -200 12 -284 -65 -72 -65 -100 -135 -93 -229
7 -110 60 -190 159 -239 50 -25 73 -31 129 -31 89 0 178 43 229 113 34 46 36
47 89 47 l54 0 162 160 162 160 319 0 319 0 35 -47 c76 -102 224 -142 342 -91
l51 22 61 -32 c34 -18 93 -50 132 -72 71 -39 71 -39 77 -89 17 -140 140 -251
280 -251 79 0 125 15 183 59 57 44 101 118 111 190 l8 52 130 73 130 72 50
-23 c56 -26 142 -31 205 -12 100 30 187 140 197 247 9 99 -16 164 -93 239
l-64 63 0 132 0 133 47 35 c27 20 59 58 77 90 28 49 31 64 31 135 0 127 -53
213 -164 267 -64 32 -177 32 -241 0 l-44 -22 -130 72 -130 73 -12 61 c-15 77
-33 111 -81 158 -61 59 -116 81 -203 81 -58 0 -86 -5 -121 -23 -92 -45 -153
-130 -168 -231 l-6 -46 -130 -72 -130 -73 -45 23 c-35 17 -62 22 -120 22 -107
0 -169 -33 -247 -133 -18 -22 -21 -23 -186 -20 l-169 3 64 90 c141 199 359
391 566 498 410 211 841 240 1279 86 474 -167 859 -589 986 -1081 23 -86 34
-154 56 -348 7 -65 99 -370 347 -1152 5 -17 -11 -18 -236 -18 -269 0 -295 -5
-330 -62 -18 -29 -20 -50 -20 -185 l0 -153 -112 0 c-123 0 -172 14 -215 61
-31 34 -53 91 -53 139 l0 40 -130 0 -130 0 0 -59 c0 -68 26 -161 63 -223 38
-65 128 -145 204 -181 66 -31 73 -32 221 -35 l152 -4 0 -189 0 -189 -505 0
c-558 0 -557 0 -595 -62 -19 -31 -20 -50 -20 -305 l0 -273 -508 0 -509 0 -6
158 c-24 595 -213 1216 -533 1752 -87 147 -152 284 -191 408 -21 69 -40 112
-47 109 -6 -2 -62 -17 -124 -32 l-113 -29 7 -30 c13 -66 77 -245 118 -332 24
-49 77 -148 118 -220 268 -459 422 -901 483 -1384 9 -69 18 -222 21 -340 3
-118 10 -227 16 -243 6 -15 24 -39 40 -52 l30 -25 687 0 c683 0 689 0 715 21
54 42 56 55 56 349 l0 270 519 0 c510 0 519 0 545 21 57 45 56 37 56 549 l0
470 279 0 c267 0 279 1 305 21 33 26 56 69 56 105 0 14 -89 313 -199 663 -182
583 -199 646 -210 751 -48 468 -251 880 -583 1184 -275 252 -581 404 -938 467
-132 23 -402 33 -520 19z m180 -746 c11 -12 10 -18 -3 -32 -16 -15 -18 -15
-34 0 -13 14 -14 20 -3 32 7 9 16 16 20 16 4 0 13 -7 20 -16z m-2320 -80 c11
-12 10 -18 -3 -32 -16 -15 -18 -15 -34 0 -13 14 -14 20 -3 32 7 9 16 16 20 16
4 0 13 -7 20 -16z m2170 -335 c0 -109 -3 -139 -15 -149 -12 -10 -38 0 -147 61
-73 41 -133 80 -133 87 0 7 59 46 130 86 169 95 165 97 165 -85z m430 82 c69
-38 125 -75 125 -82 0 -8 -60 -47 -133 -88 -109 -61 -135 -71 -147 -61 -12 10
-15 40 -15 150 0 75 3 140 7 143 14 15 43 4 163 -62z m-1000 -67 c11 -12 10
-18 -3 -32 -16 -15 -18 -15 -34 0 -13 14 -14 20 -3 32 7 9 16 16 20 16 4 0 13
-7 20 -16z m1440 0 c11 -12 10 -18 -3 -32 -16 -15 -18 -15 -34 0 -13 14 -14
20 -3 32 7 9 16 16 20 16 4 0 13 -7 20 -16z m-150 -413 c0 -111 -3 -141 -15
-151 -12 -10 -38 0 -147 61 -73 41 -133 80 -133 87 0 7 59 46 130 86 99 56
134 72 148 65 15 -9 17 -26 17 -148z m-1009 80 c68 -38 124 -75 124 -83 0 -7
-60 -46 -133 -87 -109 -61 -135 -71 -147 -61 -12 10 -15 40 -15 150 0 75 3
140 7 143 15 16 47 3 164 -62z m-1881 -67 c11 -12 10 -18 -3 -32 -16 -15 -18
-15 -34 0 -13 14 -14 20 -3 32 7 9 16 16 20 16 4 0 13 -7 20 -16z m2320 0 c11
-12 10 -18 -3 -32 -16 -15 -18 -15 -34 0 -13 14 -14 20 -3 32 7 9 16 16 20 16
4 0 13 -7 20 -16z m-150 -415 c0 -109 -3 -139 -15 -149 -12 -10 -38 0 -147 61
-73 41 -133 80 -133 87 0 7 58 46 130 86 169 96 165 98 165 -85z m374 112
c159 -87 181 -100 181 -113 0 -7 -60 -46 -133 -87 -109 -61 -135 -71 -147 -61
-12 10 -15 40 -15 150 0 75 3 140 7 143 13 14 37 6 107 -32z m-944 -97 c11
-12 10 -18 -3 -32 -16 -15 -18 -15 -34 0 -13 14 -14 20 -3 32 7 9 16 16 20 16
4 0 13 -7 20 -16z m1440 0 c11 -12 10 -18 -3 -32 -16 -15 -18 -15 -34 0 -13
14 -14 20 -3 32 7 9 16 16 20 16 4 0 13 -7 20 -16z m-3040 -320 c11 -12 10
-18 -3 -32 -16 -15 -18 -15 -34 0 -13 14 -14 20 -3 32 7 9 16 16 20 16 4 0 13
-7 20 -16z m2320 -80 c11 -12 10 -18 -3 -32 -16 -15 -18 -15 -34 0 -13 14 -14
20 -3 32 7 9 16 16 20 16 4 0 13 -7 20 -16z"/>
</g>
</svg>
