<svg width="512" height="512" viewBox="0 0 512 512" fill="none" xmlns="http://www.w3.org/2000/svg">
<path d="M177.472 200H104C101.88 200 99.84 200.84 98.344 202.344L68.688 232H62.528C59.216 222.712 50.416 216 40 216C26.768 216 16 226.768 16 240C16 253.232 26.768 264 40 264C50.416 264 59.216 257.288 62.528 248H72C74.12 248 76.16 247.16 77.656 245.656L107.312 216H177.472C180.784 225.288 189.584 232 200 232C206.08 232 211.568 229.656 215.8 225.92L248.4 244.056C248.184 245.344 248 246.648 248 248C248 261.232 258.768 272 272 272C285.232 272 296 261.232 296 248C296 246.648 295.816 245.344 295.6 244.056L328.2 225.92C332.432 229.656 337.92 232 344 232C357.232 232 368 221.232 368 208C368 197.584 361.288 188.784 352 185.472V150.52C361.288 147.208 368 138.408 368 127.992C368 114.76 357.232 103.992 344 103.992C337.92 103.992 332.432 106.336 328.2 110.072L295.6 91.936C295.816 90.656 296 89.352 296 88C296 74.768 285.232 64 272 64C258.768 64 248 74.768 248 88C248 89.352 248.184 90.656 248.4 91.944L215.8 110.08C211.568 106.344 206.08 104 200 104C189.584 104 180.784 110.712 177.472 120H107.312L77.656 90.344C76.16 88.84 74.12 88 72 88H62.528C59.216 78.712 50.416 72 40 72C26.768 72 16 82.768 16 96C16 109.232 26.768 120 40 120C50.416 120 59.216 113.288 62.528 104H68.688L98.344 133.656C99.84 135.16 101.88 136 104 136H177.472C179.888 142.776 185.224 148.112 192 150.528V160H62.528C59.216 150.712 50.416 144 40 144C26.768 144 16 154.768 16 168C16 181.232 26.768 192 40 192C50.416 192 59.216 185.288 62.528 176H192V185.472C185.224 187.888 179.888 193.224 177.472 200V200ZM40 248C35.592 248 32 244.408 32 240C32 235.592 35.592 232 40 232C44.408 232 48 235.592 48 240C48 244.408 44.408 248 40 248ZM40 104C35.592 104 32 100.408 32 96C32 91.592 35.592 88 40 88C44.408 88 48 91.592 48 96C48 100.408 44.408 104 40 104ZM40 176C35.592 176 32 172.408 32 168C32 163.592 35.592 160 40 160C44.408 160 48 163.592 48 168C48 172.408 44.408 176 40 176ZM200 216C195.592 216 192 212.408 192 208C192 203.592 195.592 200 200 200C204.408 200 208 203.592 208 208C208 212.408 204.408 216 200 216ZM215.8 145.92L248.4 164.056C248.184 165.344 248 166.648 248 168C248 169.352 248.184 170.656 248.4 171.944L215.8 190.08C213.528 188.08 210.904 186.512 208 185.472V150.52C210.904 149.488 213.536 147.928 215.8 145.92V145.92ZM328.2 190.08L295.6 171.944C295.816 170.656 296 169.352 296 168C296 166.648 295.816 165.344 295.6 164.056L328.2 145.92C330.472 147.92 333.096 149.488 336 150.528V185.48C333.096 186.512 330.464 188.072 328.2 190.08V190.08ZM223.6 204.056L256.2 185.92C258.472 187.92 261.096 189.488 264 190.528V225.48C261.096 226.52 258.464 228.08 256.2 230.088L223.6 211.952C223.816 210.656 224 209.352 224 208C224 206.648 223.816 205.344 223.6 204.056V204.056ZM272 160C276.408 160 280 163.592 280 168C280 172.408 276.408 176 272 176C267.592 176 264 172.408 264 168C264 163.592 267.592 160 272 160ZM280 190.528C282.904 189.488 285.536 187.928 287.8 185.92L320.4 204.056C320.184 205.344 320 206.648 320 208C320 209.352 320.184 210.656 320.4 211.944L287.8 230.08C285.528 228.08 282.904 226.512 280 225.472V190.528ZM320.4 131.944L287.8 150.08C285.528 148.08 282.904 146.512 280 145.472V110.52C282.904 109.48 285.536 107.92 287.8 105.912L320.4 124.048C320.184 125.344 320 126.648 320 128C320 129.352 320.184 130.656 320.4 131.944V131.944ZM264 145.472C261.096 146.512 258.464 148.072 256.2 150.08L223.6 131.944C223.816 130.656 224 129.352 224 128C224 126.648 223.816 125.344 223.6 124.056L256.2 105.92C258.472 107.92 261.096 109.488 264 110.528V145.472ZM272 256C267.592 256 264 252.408 264 248C264 243.592 267.592 240 272 240C276.408 240 280 243.592 280 248C280 252.408 276.408 256 272 256ZM344 216C339.592 216 336 212.408 336 208C336 203.592 339.592 200 344 200C348.408 200 352 203.592 352 208C352 212.408 348.408 216 344 216ZM344 120C348.408 120 352 123.592 352 128C352 132.408 348.408 136 344 136C339.592 136 336 132.408 336 128C336 123.592 339.592 120 344 120ZM272 80C276.408 80 280 83.592 280 88C280 92.408 276.408 96 272 96C267.592 96 264 92.408 264 88C264 83.592 267.592 80 272 80ZM200 120C204.408 120 208 123.592 208 128C208 132.408 204.408 136 200 136C195.592 136 192 132.408 192 128C192 123.592 195.592 120 200 120Z" fill="#234E52"/>
<path d="M184 496H312C316.416 496 320 492.416 320 488V432H424C428.416 432 432 428.416 432 424V328H488C490.544 328 492.936 326.792 494.448 324.736C495.96 322.68 496.4 320.04 495.64 317.608L455.752 189.976C454.152 141.432 433.656 96.632 397.88 63.616C361.688 30.224 314.528 13.456 265.192 16.32C208.408 19.64 155.8 50.8 124.464 99.68L137.936 108.312C166.52 63.728 214.44 35.312 266.136 32.288C311.104 29.64 354.072 44.96 387.024 75.376C420.088 105.88 438.832 147.44 439.808 192.392C439.84 193.776 440.248 195.08 440.936 196.208L477.12 312H424C419.584 312 416 315.584 416 320V352H392C378.768 352 368 341.232 368 328H352C352 350.056 369.944 368 392 368H416V416H312C307.584 416 304 419.584 304 424V480H192V472.264C192 407.536 172.544 341.352 135.728 280.864C127.584 267.488 121.432 253.048 117.432 237.952L101.96 242.048C106.352 258.632 113.112 274.488 122.056 289.184C157.344 347.168 176 410.472 176 472.264V488C176 492.416 179.584 496 184 496V496Z" fill="#234E52"/>
</svg>
